<svg width="25" height="25" viewBox="0 0 35 35" fill="none" xmlns="http://www.w3.org/2000/svg">
    <path
        d="M26.1042 25.3604C25.725 24.1937 24.6313 23.3333 23.3334 23.3333H21.875V18.9583C21.875 18.5715 21.7214 18.2006 21.4479 17.9271C21.1744 17.6536 20.8035 17.5 20.4167 17.5H11.6667V14.5833H14.5834C14.9701 14.5833 15.3411 14.4297 15.6146 14.1562C15.888 13.8827 16.0417 13.5118 16.0417 13.125V10.2083H18.9584C19.7319 10.2083 20.4738 9.90103 21.0207 9.35405C21.5677 8.80707 21.875 8.0652 21.875 7.29166V6.69374C23.6199 7.39719 25.1683 8.51297 26.3877 9.94558C27.6072 11.3782 28.4613 13.085 28.877 14.9198C29.2927 16.7546 29.2576 18.6628 28.7747 20.4811C28.2918 22.2994 27.3755 23.9736 26.1042 25.3604ZM16.0417 29.0646C10.2813 28.35 5.83335 23.45 5.83335 17.5C5.83335 16.5958 5.95002 15.7208 6.1396 14.8896L13.125 21.875V23.3333C13.125 24.1069 13.4323 24.8487 13.9793 25.3957C14.5263 25.9427 15.2681 26.25 16.0417 26.25M17.5 2.91666C15.5849 2.91666 13.6886 3.29387 11.9192 4.02675C10.1499 4.75963 8.54223 5.83383 7.18805 7.18802C4.45314 9.92292 2.91669 13.6322 2.91669 17.5C2.91669 21.3677 4.45314 25.0771 7.18805 27.812C8.54223 29.1661 10.1499 30.2404 11.9192 30.9732C13.6886 31.7061 15.5849 32.0833 17.5 32.0833C21.3678 32.0833 25.0771 30.5469 27.812 27.812C30.5469 25.0771 32.0834 21.3677 32.0834 17.5C32.0834 15.5849 31.7061 13.6885 30.9733 11.9192C30.2404 10.1499 29.1662 8.5422 27.812 7.18802C26.4578 5.83383 24.8502 4.75963 23.0808 4.02675C21.3115 3.29387 19.4151 2.91666 17.5 2.91666Z"
        fill="#40494D" />
</svg>